<?xml version="1.0" encoding="utf-8"?>
<!-- Generator: Adobe Illustrator 13.0.2, SVG Export Plug-In  -->
<!DOCTYPE svg PUBLIC "-//W3C//DTD SVG 1.1//EN" "http://www.w3.org/Graphics/SVG/1.1/DTD/svg11.dtd" [
	<!ENTITY ns_flows "http://ns.adobe.com/Flows/1.0/">
]>
<svg version="1.1"
	 xmlns="http://www.w3.org/2000/svg" xmlns:xlink="http://www.w3.org/1999/xlink" xmlns:a="http://ns.adobe.com/AdobeSVGViewerExtensions/3.0/"
	 x="0px" y="0px" width="642px" height="642px" viewBox="-37.957 26.93 642 642" enable-background="new -37.957 26.93 642 642"
	 xml:space="preserve">
<defs>
</defs>
<path fill="none" stroke="#000000" stroke-width="14" d="M113.043,237.93c-41.574-38.109-122.738,10.58-103,68
	C32.043,369.93,149.043,270.93,113.043,237.93z"/>
<path fill="none" stroke="#000000" stroke-width="14" d="M15.043,583.93c126,95,219-2,181-125c-38.853-125.76-55.448-165.07-79-215"
	/>
<path fill="none" stroke="#000000" stroke-width="14" d="M5.043,90.93c0,0,521.199,495.332,550,538"/>
<path fill="none" stroke="#000000" stroke-width="14" d="M152.043,27.93c91.895,589.23,91.396,585.974,95,610"/>
<polyline fill="none" stroke="#000000" stroke-width="14" points="251.043,288.93 241.043,26.93 340.043,136.93 380.043,25.93 
	481.043,525.93 "/>
<polyline fill="none" stroke="#000000" stroke-width="14" points="403.043,26.93 547.043,426.93 602.043,388.93 "/>
<polyline fill="none" stroke="#000000" stroke-width="14" points="486.043,85.93 569.043,106.93 559.043,183.93 "/>
<polyline fill="none" stroke="#000000" stroke-width="14" points="76.043,396.93 30.043,444.93 98.043,474.93 "/>
</svg>
